<svg version="1.1" xmlns="http://www.w3.org/2000/svg" xmlns:xlink="http://www.w3.org/1999/xlink" id="logo" viewBox="0 0 200 200">
	<circle fill="#f89d18" cx="99.999" cy="99.999" r="100"/>
	<g>
		<path fill="none" d="M95.288,126.373c-0.14-1.608-0.827-2.652-1.481-2.593c-1.384,0.116-2.743,3.924-2.417,7.647
            c0.126,1.38,0.312,2.694,0.638,3.84C94.079,132.657,95.575,129.729,95.288,126.373z"/>
		<path fill="none" d="M101.309,73.995c-0.101-1.274-0.603-2.116-1.106-2.081c-1.051,0.081-2.12,3.086-1.906,6.039
	        c0.078,1.107,0.21,2.147,0.445,3.069C100.335,78.98,101.502,76.667,101.309,73.995z"/>
		<path fill="none" d="M68.048,64.273c-0.949,0.071-1.373,4.19-1.496,9.399c1.608-2.515,2.596-5.861,2.463-7.71
	        C68.938,65.027,68.773,64.221,68.048,64.273z"/>
		<path fill="none" d="M127.93,162.622c0.136,1.489,0.56,2.456,1.376,2.456c0.035,0,0.069-0.004,0.099-0.004
	        c3.362-0.294,4.592-12.184,4.519-21.154C129.758,150.025,127.407,156.71,127.93,162.622z"/>
		<path fill="#FFFFFF" d="M28.351,70.555c2.389-0.175,4.919-1.58,5.962-3.352c-2.028-0.964-2.875-1.889-2.995-3.405
            c-0.231-3.198,4.48-5.413,13.312-6.929c-2.89,8.744-4.021,26.813-3.559,38.583c0.122,2.442,0.346,4.646,0.722,6.784
            c0.609,3.804,3.174,6.018,6.852,5.755c2.225-0.161,5.283-1.149,5.349-1.744c-2.035-3.409-3.286-9.862-3.657-18.771
            c-0.452-11.536,0.827-24.658,1.94-31.574c1.552-0.175,3.223-0.36,4.999-0.483c6.117-0.505,17.435-1.037,17.078-5.864
            c-0.119-1.741-1.973-3.237-4.865-3.955c-0.901,1.577-1.966,2.239-4.621,2.726c-6.558,1.289-14.576,1.068-23.95,2.855
            c-12.636,2.389-19.981,7.472-19.53,13.69C21.654,68.53,24.456,70.846,28.351,70.555z"/>
		<path fill="#FFFFFF" d="M72.472,118.828c-0.634-7.15-4.046-12.373-8.137-12.012c-7.15,0.641-8.957,11.021-19.509,46.4
            c-0.532-1.867-0.76-4.421-1.069-7.924c-1.891-21.323-1.439-43.977-13.311-43.967c-0.288,0-0.586,0.015-0.891,0.035
            c-11.532,1.023-21.246,30.875-23.715,39.566c-3.538,12.454-6.341,26.466-5.766,32.954c0.634,7.087,8.19,6.852,15.27,7.034
            c-0.813-2.501-1.527-7.29-1.566-10.155c-0.2-19.702,11.199-59.643,17.043-60.162c0.29-0.031,0.637,0.6,0.778,2.208
            c1.324,14.897,0.578,28.065,1.208,35.145c0.963,10.808,5.535,17.614,11.743,17.063c2.697-0.234,4.813-2.115,6.032-4.147
            c4.151-6.257,10.88-40.845,12.636-40.998l0.389,4.374c0.539,6.134-0.55,22.059,0.178,30.305c0.859,9.714,3.608,14.181,8.866,13.719
            c3.654-0.327,6.67-1.994,8.436-4.572c-3.104-5.101-5.455-4.158-7.486-27.159C73.138,131.418,72.837,122.989,72.472,118.828z"/>
		<path fill="#FFFFFF" d="M85.297,114.165c3.944-0.357,6.579-3.02,6.278-6.383c-0.256-2.921-2.669-4.887-5.896-4.887
	        c-0.232,0-0.477,0.012-0.718,0.028c-3.794,0.34-6.278,2.988-5.977,6.421C79.275,112.554,81.794,114.463,85.297,114.165z"/>
		<path fill="#FFFFFF" d="M99.604,112.884c3.944-0.347,6.586-3.014,6.287-6.365c-0.259-2.922-2.672-4.891-5.891-4.891
	        c-0.242,0-0.483,0.007-0.725,0.032c-3.794,0.339-6.278,2.98-5.983,6.41C93.582,111.29,96.111,113.199,99.604,112.884z"/>
		<path fill="#FFFFFF" d="M197.725,53.937c-5.773-17.4-23.345-34.852-43.445-34.852c-0.726,0-1.457,0.025-2.187,0.069
            c-14.804,0.942-24.336,11.105-26.087,13.042c-9.771,10.834-11.922,25.702-8.875,38.248c-0.039,2.206-0.395,4.745-1.449,7.397
            c-3.117,7.847-9.759,10.247-10.207,10.341c-0.824,0.171-1.44-0.112-1.44-0.112c-1.285-0.298-2.413-1.146-3.334-2.466
            c3.114-2.62,6.561-6.667,6.183-11.777c-0.34-4.768-3.115-7.437-7.395-7.111c-5.65,0.405-9.718,6.13-9.726,13.177
            c-2.694,4.188-6.109,9.527-8.237,9.688c-0.879,0.063-1.118-2.036-1.461-4.046c-0.666-3.794,0.333-5.521-0.963-7.108
            c-0.665-0.805-1.868-1.188-3.017-1.418c-5.57-1.113-8.169,17.648-8.946,17.711c-0.207-2.788-0.462-8.673-0.557-14.51
            c5.514-4.953,8.264-10.18,7.888-15.234c-0.27-3.808-2.434-6.439-5.275-6.439c-0.105,0-0.22,0.003-0.336,0.01
            c-7.847,0.575-10.282,19.971-9.451,31.423c0.644,8.828,2.701,13.176,6.427,12.902c3.396-0.245,6.281-5.889,7.949-14.422
            c1.002,4.477,3.157,7.944,6.05,7.738c3.487-0.252,7.919-5.282,11.112-10.16c2.192,5.206,7.246,8.353,13.381,7.911
            c7.014-0.52,14.501-5.887,17.172-12.435c8.56,15.179,26.267,26.547,40.912,22.147c8.446-2.554,12.892-9.446,14.121-11.414
            c8.904-14.269,5.612-38.121-9.776-45.909c-10.029-5.079-25.531-3.489-32.597,6.523c-3.72,5.261-5.388,13.273-2.168,20.37
            c3.478,7.669,11.983,12.734,19.561,11.676c1.045-0.15,6.95-0.963,8.958-5.43c1.885-4.179-0.39-9.91-4.074-12.492
            c-2.853-2-6.043-1.769-8.793-1.549c-2.564,0.222-4.747,0.432-5.871-1.169c-1.709-2.403,0.008-7.325,2.988-9.781
            c4.666-3.853,12.411-1.632,16.565,0.81c11.308,6.673,16.773,27.275,7.339,38.313c-5.289,6.175-14.61,8.59-22.275,6.789
            c-20.437-4.802-33.948-40.681-21.456-58.41c5.349-7.605,14.19-10.142,17.291-11.011c11.462-3.191,23.52-0.417,31.997,5.234
            c18.772,12.548,20.924,42.79,11.56,62.831c-1.257,2.666-10.747,22.174-31.247,27.849c-4.708,1.312-8.866,1.563-11.822,1.535
            c-1.013-5.647-2.586-7.563-5.651-7.293c-1.38,0.118-2.329,0.21-5.633,2.858c1.439,3.85-1.226,8.568-3.128,8.729
            c-0.872,0.092-1.534-0.668-1.702-2.711c-0.417-4.676,2.753-11.947,5.898-12.224c0.662-0.058,1.362,0.388,1.99,1.597
            c3.843-1.373,5.637-2.712,5.479-4.54c-0.213-2.41-3.317-3.311-6.309-3.045c-7.819,0.694-15.229,7.784-16.603,15.35
            c-4.534,9.737-10.801,16.517-16.07,16.98c-2.484,0.224-4.649-0.911-6.309-3.118c4.038-3.384,8.512-8.552,7.937-14.979
            c-0.486-5.587-3.723-8.82-8.714-8.82c-0.364,0-0.729,0.021-1.108,0.045c-7.888,0.698-13.343,8.912-12.488,18.549
            c0.886,10.008,8.968,16.506,19.271,15.592c8.228-0.729,15.205-8.243,19.359-14.831c1.497,1.904,3.715,2.851,6.552,2.602
            c2.996-0.27,5.654-1.835,7.907-4.684c0.112,0.357,0.144,0.796,0.189,1.314c-7.854,7.682-13.554,17.314-12.811,25.712
            c0.482,5.397,3.674,8.207,8.855,7.753c12.491-1.118,15.003-21.72,13.974-33.322l-0.183-2.118
            c6.411-1.524,15.386-4.52,24.435-10.881C186.076,110.095,207.004,81.845,197.725,53.937z M68.048,64.273
            c0.726-0.052,0.89,0.754,0.967,1.689c0.133,1.849-0.855,5.195-2.463,7.71C66.675,68.464,67.099,64.344,68.048,64.273z
             M98.297,77.953c-0.214-2.953,0.855-5.958,1.906-6.039c0.504-0.036,1.005,0.806,1.106,2.081c0.193,2.673-0.974,4.985-2.567,7.027
            C98.507,80.1,98.375,79.06,98.297,77.953z M91.389,131.428c-0.326-3.724,1.033-7.531,2.417-7.647
            c0.654-0.06,1.342,0.984,1.481,2.593c0.288,3.355-1.208,6.284-3.261,8.895C91.7,134.122,91.515,132.808,91.389,131.428z
             M129.404,165.074c-0.029,0-0.063,0.004-0.099,0.004c-0.816,0-1.24-0.967-1.376-2.456c-0.522-5.912,1.828-12.597,5.993-18.702
            C133.996,152.891,132.767,164.78,129.404,165.074z"/>
	</g>
</svg>
