<?xml version="1.0" encoding="utf-8"?>
<!-- Generator: Adobe Illustrator 16.0.0, SVG Export Plug-In . SVG Version: 6.00 Build 0)  -->
<!DOCTYPE svg PUBLIC "-//W3C//DTD SVG 1.1//EN" "http://www.w3.org/Graphics/SVG/1.1/DTD/svg11.dtd">
<svg version="1.1" id="Слой_1" xmlns="http://www.w3.org/2000/svg" xmlns:xlink="http://www.w3.org/1999/xlink" x="0px" y="0px"
	 width="226.772px" height="226.772px" viewBox="0 0 226.772 226.772" enable-background="new 0 0 226.772 226.772"
	 xml:space="preserve">
<circle fill="#DC931A" cx="113.386" cy="113.385" r="113.385"/>
<path fill="none" d="M350.87,2.236c-0.114-1.445-0.683-2.399-1.254-2.359c-1.191,0.092-2.403,3.499-2.161,6.848
	c0.088,1.255,0.238,2.435,0.505,3.479C349.766,7.889,351.088,5.267,350.87,2.236z"/>
<path fill="none" d="M344.042,61.626c-0.158-1.823-0.938-3.007-1.68-2.939c-1.569,0.131-3.11,4.448-2.741,8.671
	c0.144,1.564,0.354,3.055,0.724,4.354C342.672,68.751,344.369,65.431,344.042,61.626z"/>
<path fill="none" d="M313.157-8.786c-1.076,0.08-1.557,4.751-1.696,10.657c1.823-2.852,2.943-6.646,2.793-8.742
	C314.166-7.932,313.979-8.846,313.157-8.786z"/>
<path fill="none" d="M381.053,102.728c0.154,1.688,0.635,2.784,1.561,2.784c0.041,0,0.08-0.004,0.111-0.004
	c3.813-0.333,5.207-13.814,5.125-23.986C383.127,88.444,380.461,96.023,381.053,102.728z"/>
<g>
	<path fill="#FFFFFF" d="M32.146,79.999c2.709-0.198,5.577-1.791,6.761-3.801c-2.3-1.093-3.261-2.142-3.396-3.861
		c-0.262-3.626,5.08-6.137,15.094-7.856c-3.276,9.914-4.56,30.401-4.035,43.747c0.139,2.769,0.393,5.268,0.818,7.692
		c0.69,4.313,3.599,6.822,7.769,6.525c2.522-0.184,5.99-1.303,6.065-1.979c-2.308-3.865-3.726-11.182-4.146-21.283
		c-0.513-13.08,0.938-27.959,2.2-35.8c1.76-0.198,3.654-0.408,5.668-0.548c6.936-0.572,19.769-1.176,19.363-6.649
		c-0.135-1.974-2.236-3.67-5.517-4.484c-1.021,1.788-2.229,2.539-5.239,3.091c-7.436,1.462-16.527,1.211-27.156,3.237
		c-14.327,2.709-22.656,8.472-22.145,15.522C24.553,77.703,27.729,80.329,32.146,79.999z"/>
	<path fill="#FFFFFF" d="M82.174,134.734c-0.719-8.107-4.588-14.029-9.227-13.619c-8.107,0.727-10.156,12.496-22.12,52.611
		c-0.604-2.117-0.862-5.012-1.212-8.984c-2.145-24.178-1.632-49.863-15.093-49.852c-0.326,0-0.664,0.016-1.01,0.039
		c-13.075,1.16-24.09,35.008-26.89,44.863c-4.012,14.121-7.189,30.009-6.538,37.364c0.719,8.035,9.286,7.77,17.313,7.977
		c-0.921-2.836-1.731-8.266-1.775-11.516c-0.227-22.339,12.698-67.626,19.324-68.214c0.329-0.035,0.723,0.68,0.882,2.502
		c1.501,16.893,0.655,31.822,1.37,39.85c1.092,12.255,6.275,19.972,13.314,19.349c3.058-0.266,5.457-2.398,6.839-4.703
		c4.707-7.095,12.337-46.312,14.327-46.487l0.441,4.961c0.611,6.955-0.624,25.012,0.202,34.361
		c0.974,11.015,4.091,16.079,10.053,15.554c4.144-0.369,7.563-2.26,9.565-5.184c-3.52-5.783-6.185-4.715-8.488-30.794
		C82.929,149.009,82.587,139.453,82.174,134.734z"/>
	<path fill="#FFFFFF" d="M96.715,129.447c4.473-0.404,7.46-3.424,7.118-7.236c-0.29-3.313-3.026-5.541-6.685-5.541
		c-0.263,0-0.54,0.012-0.814,0.031c-4.302,0.385-7.118,3.389-6.776,7.281C89.888,127.621,92.743,129.785,96.715,129.447z"/>
	<path fill="#FFFFFF" d="M112.937,127.994c4.472-0.393,7.466-3.416,7.128-7.217c-0.293-3.313-3.029-5.545-6.679-5.545
		c-0.274,0-0.548,0.008-0.822,0.035c-4.302,0.385-7.118,3.381-6.784,7.27C106.109,126.187,108.977,128.351,112.937,127.994z"/>
	<path fill="#FFFFFF" d="M224.192,61.156c-6.547-19.729-26.471-39.518-49.262-39.518c-0.822,0-1.652,0.028-2.479,0.079
		c-16.785,1.068-27.594,12.592-29.578,14.788c-11.08,12.284-13.52,29.143-10.064,43.368c-0.043,2.501-0.447,5.38-1.643,8.387
		c-3.535,8.897-11.064,11.618-11.574,11.726c-0.934,0.194-1.633-0.127-1.633-0.127c-1.457-0.338-2.736-1.299-3.78-2.797
		c3.53-2.971,7.438-7.559,7.01-13.354c-0.385-5.406-3.531-8.433-8.384-8.063c-6.406,0.459-11.019,6.951-11.028,14.94
		c-3.055,4.749-6.927,10.803-9.34,10.985c-0.997,0.071-1.268-2.309-1.656-4.588c-0.755-4.302,0.377-6.26-1.093-8.06
		c-0.754-0.913-2.117-1.347-3.42-1.608c-6.315-1.263-9.263,20.011-10.144,20.082c-0.234-3.161-0.524-9.834-0.632-16.452
		c6.252-5.616,9.37-11.542,8.944-17.273c-0.306-4.317-2.76-7.301-5.981-7.301c-0.119,0-0.25,0.004-0.381,0.012
		c-8.897,0.651-11.658,22.645-10.717,35.629c0.73,10.01,3.063,14.939,7.288,14.63c3.85-0.279,7.122-6.678,9.013-16.354
		c1.136,5.076,3.579,9.008,6.859,8.773c3.954-0.286,8.979-5.988,12.6-11.52c2.486,5.903,8.216,9.471,15.171,8.97
		c7.953-0.589,16.443-6.675,19.471-14.1c9.705,17.211,29.783,30.101,46.389,25.111c9.576-2.895,14.617-10.709,16.012-12.941
		c10.096-16.179,6.363-43.224-11.086-52.054c-11.371-5.759-28.947-3.956-36.959,7.396c-4.219,5.966-6.109,15.05-2.459,23.097
		c3.943,8.695,13.588,14.438,22.18,13.239c1.184-0.171,7.881-1.093,10.156-6.157c2.137-4.738-0.441-11.236-4.619-14.164
		c-3.234-2.268-6.852-2.006-9.971-1.756c-2.906,0.251-5.381,0.489-6.656-1.326c-1.938-2.725,0.008-8.306,3.389-11.09
		c5.291-4.369,14.072-1.851,18.783,0.918c12.82,7.566,19.018,30.926,8.32,43.441c-5.996,7.002-16.566,9.74-25.258,7.697
		c-23.172-5.445-38.492-46.126-24.328-66.229c6.066-8.623,16.092-11.499,19.605-12.484c12.996-3.618,26.668-0.473,36.281,5.935
		c21.285,14.228,23.725,48.518,13.107,71.241c-1.426,3.023-12.186,25.142-35.43,31.578c-5.34,1.486-10.055,1.771-13.406,1.74
		c-1.148-6.404-2.932-8.576-6.406-8.27c-1.566,0.135-2.643,0.238-6.387,3.24c1.631,4.365-1.391,9.715-3.547,9.898
		c-0.99,0.104-1.74-0.758-1.932-3.074c-0.473-5.303,3.123-13.547,6.689-13.861c0.75-0.064,1.545,0.441,2.256,1.811
		c4.357-1.557,6.391-3.074,6.213-5.146c-0.242-2.732-3.762-3.754-7.154-3.453c-8.865,0.787-17.268,8.826-18.824,17.404
		c-5.141,11.041-12.246,18.727-18.221,19.254c-2.816,0.254-5.271-1.033-7.153-3.535c4.579-3.838,9.65-9.697,9-16.984
		c-0.553-6.334-4.221-10.002-9.881-10.002c-0.413,0-0.826,0.025-1.256,0.053c-8.944,0.791-15.129,10.104-14.16,21.031
		c1.005,11.348,10.169,18.715,21.851,17.678c9.33-0.826,17.24-9.346,21.951-16.814c1.697,2.158,4.211,3.23,7.428,2.949
		c3.396-0.307,6.412-2.082,8.965-5.311c0.129,0.404,0.164,0.902,0.215,1.49c-8.904,8.709-15.367,19.633-14.525,29.153
		c0.549,6.121,4.166,9.307,10.041,8.791c14.164-1.268,17.012-24.628,15.846-37.782l-0.207-2.402
		c7.268-1.729,17.445-5.125,27.705-12.338C210.985,124.832,234.713,92.801,224.192,61.156z M77.157,72.877
		c0.822-0.06,1.009,0.854,1.097,1.915c0.15,2.097-0.97,5.891-2.793,8.742C75.601,77.628,76.081,72.957,77.157,72.877z
		 M111.455,88.388c-0.242-3.349,0.97-6.756,2.161-6.848c0.571-0.04,1.14,0.914,1.253,2.359c0.219,3.03-1.103,5.652-2.91,7.968
		C111.693,90.822,111.543,89.643,111.455,88.388z M103.622,149.021c-0.369-4.223,1.172-8.541,2.741-8.672
		c0.742-0.066,1.521,1.117,1.68,2.939c0.326,3.805-1.37,7.125-3.697,10.086C103.976,152.076,103.766,150.585,103.622,149.021z
		 M146.725,187.17c-0.031,0-0.07,0.004-0.111,0.004c-0.926,0-1.406-1.096-1.561-2.783c-0.592-6.705,2.074-14.284,6.797-21.206
		C151.932,173.357,150.538,186.838,146.725,187.17z"/>
</g>
</svg>
